<svg width="498" height="101" viewBox="0 0 498 101" fill="none" xmlns="http://www.w3.org/2000/svg">
<g clip-path="url(#clip0_1710_5986)">
<path d="M211.017 17.8983C206.966 17.8983 203.695 21.2565 203.695 25.0722C203.695 28.888 207.121 32.0913 211.017 32.2461C215.068 32.2461 218.339 28.888 218.339 25.0722C218.339 21.2565 215.068 17.8983 211.017 17.8983Z" fill="#042639"/>
<path d="M161.54 36.2092C156.244 36.2092 152.038 37.5821 148.767 40.4826C147.986 41.2431 146.586 40.6374 146.586 39.5674V20.7982C146.586 20.0377 145.961 19.4253 145.187 19.4253H136.001C135.22 19.4253 134.601 20.0377 134.601 20.7982V81.3792C134.601 82.1396 135.227 82.752 136.001 82.752H145.187C145.967 82.752 146.586 82.1396 146.586 81.3792V80.6187C146.586 79.5487 147.986 78.943 148.767 79.7035C152.038 82.604 156.398 83.9769 161.54 83.9769C167.772 83.9769 173.061 81.6888 177.422 77.1125C181.938 72.5363 184.118 66.8901 184.118 60.1738C184.118 53.4575 181.783 47.8113 177.422 43.2351C173.061 38.6589 167.765 36.3708 161.54 36.216V36.2092ZM168.546 69.3262C166.056 71.6143 163.095 72.8324 159.36 72.8324C155.625 72.8324 152.663 71.6143 150.173 69.3262C147.838 66.8833 146.593 63.8348 146.593 60.1671C146.593 56.4994 147.838 53.3028 150.173 51.0079C152.663 48.565 155.625 47.3469 159.36 47.3469C163.095 47.3469 166.21 48.565 168.546 51.0079C171.036 53.4508 172.281 56.4994 172.281 60.1671C172.281 63.8348 171.036 66.8833 168.546 69.3262Z" fill="#042639"/>
<path d="M199.227 16.8276H190.041C189.415 16.8276 188.796 17.2852 188.796 18.0457V81.3792C188.796 82.1396 189.26 82.7521 190.041 82.5973H199.227C199.853 82.5973 200.472 82.1396 200.472 81.3792V18.0457C200.472 17.4333 200.007 16.8276 199.227 16.8276Z" fill="#042639"/>
<path d="M215.532 37.5815H206.346C205.72 37.5815 205.101 38.0392 205.101 38.7996V81.3719C205.101 82.1324 205.727 82.7448 206.346 82.59H215.532C216.158 82.59 216.777 82.1324 216.777 81.3719V38.7996C216.777 38.1872 216.313 37.5815 215.532 37.5815Z" fill="#042639"/>
<path d="M246.953 36.2102C242.121 36.2102 238.231 37.583 235.425 40.0259C234.644 40.7864 233.245 40.1807 233.245 39.1107V38.8078C233.245 38.0474 232.619 37.435 231.845 37.435H222.659C221.878 37.435 221.259 38.0474 221.259 38.8078V81.232C221.259 81.9925 221.885 82.6049 222.659 82.6049H231.845C232.626 82.6049 233.245 81.9925 233.245 81.232V58.1895C233.245 50.7127 237.141 47.0518 243.366 47.0518C248.972 47.0518 252.552 50.2551 252.552 56.359V81.3868C252.552 82.1473 253.178 82.7597 253.952 82.7597H263.138C263.919 82.7597 264.538 82.1473 264.538 81.3868V54.9861C264.538 49.037 262.822 44.6089 259.551 41.2507C256.281 37.8926 252.229 36.3649 246.94 36.2169L246.953 36.2102Z" fill="#042639"/>
<path d="M315.738 19.4188H306.552C305.771 19.4188 305.307 20.0312 305.307 20.7916V39.4061C305.307 40.4761 303.907 41.0818 303.127 40.3213C299.856 37.4208 295.495 36.0479 290.354 36.0479C284.283 36.0479 278.832 38.4908 274.471 43.067C270.111 47.798 267.93 53.2895 267.93 60.0058C267.93 66.722 270.111 72.3683 274.471 76.9445C278.832 81.5207 284.129 83.8088 290.354 83.8088C295.65 83.8088 299.856 82.436 303.127 79.5354C303.907 78.775 305.307 79.3807 305.307 80.4507V81.2111C305.307 81.8235 305.771 82.4292 306.552 82.4292H315.738C316.364 82.4292 316.983 81.9716 316.983 81.2111V20.6436C316.983 20.0312 316.519 19.4255 315.738 19.4255V19.4188ZM301.72 69.3197C299.23 71.6078 296.269 72.8259 292.534 72.8259C288.799 72.8259 285.838 71.6078 283.348 69.3197C281.013 66.8768 279.768 63.8282 279.768 60.1605C279.768 56.4928 281.013 53.2962 283.348 51.0014C285.838 48.5585 288.799 47.3404 292.534 47.3404C296.269 47.3404 299.385 48.5585 301.72 51.0014C304.055 53.4443 305.3 56.4928 305.3 60.1605C305.3 63.8282 304.055 66.8768 301.72 69.3197Z" fill="#042639"/>
<path d="M367.079 71.3054L359.138 66.8772C358.512 66.5744 357.738 66.7224 357.422 67.3348C355.396 70.3834 351.816 72.2206 347.455 72.2206C343.875 72.2206 340.914 71.1506 338.579 68.8625C336.398 66.5744 335.153 63.5191 335.153 60.0129C335.153 52.839 340.295 47.6504 347.455 47.6504C351.816 47.6504 355.396 49.6356 357.422 52.6842C357.732 53.2966 358.512 53.4447 359.138 53.1418L367.079 48.5656C367.705 48.2628 367.86 47.4956 367.543 46.8899C363.647 40.4832 356.015 36.3579 347.61 36.3579C340.604 36.3579 334.837 38.646 330.167 43.2222C325.651 47.7984 323.316 53.4447 323.316 60.1609C323.316 66.8772 325.496 72.5234 330.167 77.0997C334.837 81.6759 340.759 83.964 347.455 83.6611C355.867 83.6611 363.344 79.5426 367.543 73.1291C368.008 72.5167 367.698 71.6015 367.079 71.2986V71.3054Z" fill="#042639"/>
<path d="M417.034 37.5827H407.848C407.067 37.5827 406.448 38.1951 406.448 38.9556V39.716C406.448 40.786 405.048 41.3917 404.268 40.6313C400.997 37.7307 396.791 36.3579 391.495 36.3579C385.263 36.3579 379.967 38.8008 375.613 43.377C371.252 48.108 369.071 53.5994 369.071 60.3157C369.071 67.032 371.252 72.6782 375.613 77.2544C380.128 81.8307 385.27 84.1188 391.495 84.1188C396.636 84.1188 400.997 82.7459 404.268 79.8454C405.048 79.0849 406.448 79.6906 406.448 80.7606V81.5211C406.448 82.2816 407.074 82.894 407.848 82.894H417.034C417.815 82.894 418.434 82.2816 418.434 81.5211V38.9556C418.434 38.1951 417.808 37.5827 417.034 37.5827ZM402.861 69.3268C400.371 71.6149 397.41 72.833 393.675 72.833C389.94 72.833 386.979 71.6149 384.489 69.3268C382.154 66.8839 380.909 63.8354 380.909 60.1677C380.909 56.5 382.154 53.3033 384.489 51.0085C386.979 48.5656 389.94 47.3475 393.675 47.3475C397.41 47.3475 400.526 48.5656 402.861 51.0085C405.351 53.4514 406.596 56.5 406.596 60.1677C406.596 63.8354 405.351 66.8839 402.861 69.3268Z" fill="#042639"/>
<path d="M447.607 36.822C443.556 37.1248 439.821 38.6525 437.331 41.553C436.55 42.3135 435.151 41.8558 434.996 40.6377V38.8073C434.996 38.1949 434.531 37.5892 433.751 37.5892H424.403C423.777 37.5892 423.158 38.0468 423.158 38.8073V81.5343C423.158 82.1467 423.623 82.7524 424.403 82.7524H433.751C434.377 82.7524 434.996 82.2948 434.996 81.5343V61.2374C434.996 56.9641 436.396 53.7607 439.202 51.9302C441.692 50.2545 444.498 49.4873 447.614 49.6421C448.395 49.6421 449.014 49.0297 449.014 48.2693V38.0468C449.014 37.2863 448.388 36.8287 447.614 36.8287L447.607 36.822Z" fill="#042639"/>
<path d="M465.919 66.4269L496.909 60.7807C497.535 60.6259 497.999 60.0202 497.999 59.4078C497.999 58.1897 497.844 56.9649 497.69 55.7468C496.599 49.0305 493.329 43.9967 488.187 40.181C483.207 36.52 477.285 35.1471 470.589 36.3652C463.583 37.5833 458.132 40.7934 454.545 46.13C450.81 51.3187 449.565 57.2677 450.81 63.984C452.055 70.7003 455.326 75.8889 460.622 79.5499C466.073 83.2108 472.46 84.4357 479.937 83.0628C488.194 81.6899 493.955 77.7194 497.38 71.4675C497.69 70.707 497.38 69.9398 496.599 69.637L488.658 66.8912C488.033 66.7365 487.413 67.046 487.104 67.5037C485.388 70.4042 482.433 72.0799 478.382 72.8471C472.15 73.9171 467.635 72.5442 464.99 68.4189C464.526 67.6584 464.99 66.5884 465.925 66.4336L465.919 66.4269ZM464.048 57.7254C463.112 57.8801 462.332 57.113 462.493 56.1977C463.274 51.1639 466.854 47.8057 472.46 46.8905C477.285 45.9752 481.962 47.651 484.607 52.2339C485.071 52.9944 484.607 54.0644 483.672 54.2192L464.048 57.7321V57.7254Z" fill="#042639"/>
<path d="M13.0018 35.4155C14.9064 34.0695 23.3993 29.0088 28.2716 28.7665C29.8396 28.6857 31.0308 29.1097 31.5019 30.3076C33.2516 34.7358 20.6334 37.6699 24.7654 43.0604C26.9593 45.9138 34.5841 45.5033 37.8009 45.537C44.0461 45.6043 49.8336 44.2449 55.8568 42.7845C61.4761 41.4184 67.7011 40.5031 73.0512 43.2892C73.9059 43.7334 74.7404 44.2045 75.5547 44.7092C75.6152 44.7429 75.6691 44.7832 75.7296 44.8236C76.7526 45.4562 77.7418 46.1494 78.6975 46.8829C79.7473 45.3822 80.6827 43.8209 81.497 42.1788C82.3517 40.4628 83.092 38.6727 83.6775 36.8153C84.3773 34.6348 84.8955 32.3736 85.1849 30.0384C85.4003 28.4233 85.5079 26.7947 85.5079 25.119C85.5079 24.8498 85.5079 24.5873 85.4945 24.3249C85.4676 23.1606 85.3532 22.0166 85.1244 20.8927C80.8981 0.0440109 55.601 0.00363159 38.8575 0.00363159C29.9271 0.00363159 20.5257 0.380496 11.7703 2.26482C5.04057 3.71171 0.0269189 9.60023 0 16.552V51.2169C2.79284 44.8909 7.35559 39.3995 12.9951 35.4155H13.0018Z" fill="#FF621F"/>
<path d="M93.0654 71.4331C92.6751 67.6174 91.4839 63.8083 89.6938 60.2147C87.3788 55.5644 84.1082 51.4122 80.1511 48.054C79.68 47.6503 79.1955 47.2599 78.6975 46.8831C68.2731 53.9897 56.7518 59.4542 44.7325 63.2632C38.6017 65.2014 32.3229 66.7425 25.9768 67.7923C20.344 68.721 14.442 68.8489 9.09187 71.0361C4.35414 72.9742 0.895054 77.3889 0.154784 82.4564C0.0538378 83.1496 0 83.8562 0 84.5763C0 88.5266 1.63532 92.3626 4.47527 95.1016C10.0542 100.479 18.3924 100.465 25.6268 100.728C35.8358 101.098 46.0717 101.071 56.2538 100.115C67.1762 99.0923 80.2789 98.2174 87.8364 89.1525C92.2309 83.8831 93.7048 77.6581 93.0587 71.4264L93.0654 71.4331Z" fill="#FF621F"/>
</g>
<defs>
<clipPath id="clip0_1710_5986">
<rect width="498" height="100.946" fill="white"/>
</clipPath>
</defs>
</svg>
